<?xml version="1.0" encoding="utf-8"?>
<!-- Generator: Adobe Illustrator 27.4.1, SVG Export Plug-In . SVG Version: 6.00 Build 0)  -->
<svg version="1.1" id="Layer_1" xmlns="http://www.w3.org/2000/svg" xmlns:xlink="http://www.w3.org/1999/xlink" x="0px" y="0px"
	 viewBox="0 0 68.2 109.1" style="enable-background:new 0 0 68.2 109.1;" xml:space="preserve">
<style type="text/css">
	.st0{clip-path:url(#SVGID_00000165920949951203073930000003063820498694321587_);}
	.st1{fill:#FFFFFF;}
</style>
<g>
	<defs>
		<rect id="SVGID_1_" width="68.2" height="109.1"/>
	</defs>
	<clipPath id="SVGID_00000096779191611874862540000015713256384116959617_">
		<use xlink:href="#SVGID_1_"  style="overflow:visible;"/>
	</clipPath>
	<g style="clip-path:url(#SVGID_00000096779191611874862540000015713256384116959617_);">
		<path class="st1" d="M44.3,20.5c5.6,0,10.2-4.6,10.2-10.2S50,0,44.3,0c-5.6,0-10.2,4.6-10.2,10.2S38.7,20.5,44.3,20.5z M64.5,52.2
			l-5-2.5l-2.1-6.3C54.3,34,45.6,27.3,35.7,27.3c-7.7,0-11.9,2.2-19.9,5.4c-4.6,1.9-8.4,5.4-10.6,9.8l-1.4,2.9
			c-1.7,3.4-0.3,7.5,3,9.1c3.3,1.7,7.4,0.3,9.1-3l1.4-2.9c0.7-1.5,2-2.7,3.5-3.3l5.7-2.3l-3.2,12.9c-1.1,4.4,0.1,9.1,3.2,12.5
			l12.8,13.9c1.5,1.7,2.6,3.7,3.2,5.9l3.9,15.6c0.9,3.6,4.6,5.9,8.3,5c3.6-0.9,5.9-4.6,5-8.3l-4.7-19c-0.6-2.2-1.6-4.2-3.2-5.9
			l-9.7-10.6l3.7-14.6l1.2,3.5c1.1,3.4,3.6,6.3,6.8,7.9l5,2.5c3.3,1.7,7.4,0.3,9.1-3C69.2,58.1,67.8,53.9,64.5,52.2z M15.7,82.2
			c-0.7,1.7-1.7,3.3-3,4.6L2,97.5c-2.7,2.7-2.7,7,0,9.7c2.7,2.7,7,2.7,9.6,0l12.7-12.7c1.3-1.3,2.3-2.9,3-4.6l2.9-7.2
			C18.4,69.8,22,73.8,20.1,71.2L15.7,82.2z"/>
	</g>
</g>
</svg>
